<mxfile host="Electron" agent="Mozilla/5.0 (Windows NT 10.0; Win64; x64) AppleWebKit/537.36 (KHTML, like Gecko) draw.io/26.0.16 Chrome/132.0.6834.196 Electron/34.2.0 Safari/537.36" version="26.0.16">
  <diagram name="Page-1" id="2YBvvXClWsGukQMizWep">
    <mxGraphModel dx="1502" dy="677" grid="1" gridSize="10" guides="1" tooltips="1" connect="1" arrows="1" fold="1" page="1" pageScale="1" pageWidth="850" pageHeight="1100" math="0" shadow="0">
      <root>
        <mxCell id="0" />
        <mxCell id="1" parent="0" />
        <mxCell id="aM9ryv3xv72pqoxQDRHE-1" value="User" style="shape=umlLifeline;perimeter=lifelinePerimeter;whiteSpace=wrap;html=1;container=0;dropTarget=0;collapsible=0;recursiveResize=0;outlineConnect=0;portConstraint=eastwest;newEdgeStyle={&quot;edgeStyle&quot;:&quot;elbowEdgeStyle&quot;,&quot;elbow&quot;:&quot;vertical&quot;,&quot;curved&quot;:0,&quot;rounded&quot;:0};" parent="1" vertex="1">
          <mxGeometry x="180" y="30" width="100" height="560" as="geometry" />
        </mxCell>
        <mxCell id="aM9ryv3xv72pqoxQDRHE-2" value="" style="html=1;points=[];perimeter=orthogonalPerimeter;outlineConnect=0;targetShapes=umlLifeline;portConstraint=eastwest;newEdgeStyle={&quot;edgeStyle&quot;:&quot;elbowEdgeStyle&quot;,&quot;elbow&quot;:&quot;vertical&quot;,&quot;curved&quot;:0,&quot;rounded&quot;:0};" parent="aM9ryv3xv72pqoxQDRHE-1" vertex="1">
          <mxGeometry x="45" y="70" width="10" height="450" as="geometry" />
        </mxCell>
        <mxCell id="aM9ryv3xv72pqoxQDRHE-5" value="Categoria" style="shape=umlLifeline;perimeter=lifelinePerimeter;whiteSpace=wrap;html=1;container=0;dropTarget=0;collapsible=0;recursiveResize=0;outlineConnect=0;portConstraint=eastwest;newEdgeStyle={&quot;edgeStyle&quot;:&quot;elbowEdgeStyle&quot;,&quot;elbow&quot;:&quot;vertical&quot;,&quot;curved&quot;:0,&quot;rounded&quot;:0};" parent="1" vertex="1">
          <mxGeometry x="370" y="30" width="100" height="560" as="geometry" />
        </mxCell>
        <mxCell id="aM9ryv3xv72pqoxQDRHE-6" value="" style="html=1;points=[];perimeter=orthogonalPerimeter;outlineConnect=0;targetShapes=umlLifeline;portConstraint=eastwest;newEdgeStyle={&quot;edgeStyle&quot;:&quot;elbowEdgeStyle&quot;,&quot;elbow&quot;:&quot;vertical&quot;,&quot;curved&quot;:0,&quot;rounded&quot;:0};" parent="aM9ryv3xv72pqoxQDRHE-5" vertex="1">
          <mxGeometry x="45" y="70" width="10" height="100" as="geometry" />
        </mxCell>
        <mxCell id="aM9ryv3xv72pqoxQDRHE-7" value="Seleciona uma categoria" style="html=1;verticalAlign=bottom;endArrow=block;edgeStyle=elbowEdgeStyle;elbow=horizontal;curved=0;rounded=0;" parent="1" source="aM9ryv3xv72pqoxQDRHE-2" target="aM9ryv3xv72pqoxQDRHE-6" edge="1">
          <mxGeometry relative="1" as="geometry">
            <mxPoint x="345" y="120" as="sourcePoint" />
            <Array as="points">
              <mxPoint x="330" y="110" />
            </Array>
          </mxGeometry>
        </mxCell>
        <mxCell id="aM9ryv3xv72pqoxQDRHE-9" value="Apresenta posts pertencentes" style="html=1;verticalAlign=bottom;endArrow=block;edgeStyle=elbowEdgeStyle;elbow=vertical;curved=0;rounded=0;" parent="1" target="aM9ryv3xv72pqoxQDRHE-2" edge="1">
          <mxGeometry x="-0.0556" relative="1" as="geometry">
            <mxPoint x="415" y="170" as="sourcePoint" />
            <Array as="points">
              <mxPoint x="350" y="170" />
            </Array>
            <mxPoint x="240" y="170" as="targetPoint" />
            <mxPoint as="offset" />
          </mxGeometry>
        </mxCell>
        <mxCell id="K3tkkCh4TKfrHV-Ib_or-1" value="Post" style="shape=umlLifeline;perimeter=lifelinePerimeter;whiteSpace=wrap;html=1;container=0;dropTarget=0;collapsible=0;recursiveResize=0;outlineConnect=0;portConstraint=eastwest;newEdgeStyle={&quot;edgeStyle&quot;:&quot;elbowEdgeStyle&quot;,&quot;elbow&quot;:&quot;vertical&quot;,&quot;curved&quot;:0,&quot;rounded&quot;:0};" vertex="1" parent="1">
          <mxGeometry x="540" y="30" width="100" height="570" as="geometry" />
        </mxCell>
        <mxCell id="K3tkkCh4TKfrHV-Ib_or-2" value="" style="html=1;points=[];perimeter=orthogonalPerimeter;outlineConnect=0;targetShapes=umlLifeline;portConstraint=eastwest;newEdgeStyle={&quot;edgeStyle&quot;:&quot;elbowEdgeStyle&quot;,&quot;elbow&quot;:&quot;vertical&quot;,&quot;curved&quot;:0,&quot;rounded&quot;:0};" vertex="1" parent="K3tkkCh4TKfrHV-Ib_or-1">
          <mxGeometry x="45" y="80" width="10" height="450" as="geometry" />
        </mxCell>
        <mxCell id="K3tkkCh4TKfrHV-Ib_or-3" value="Busca posts pertencentes" style="html=1;verticalAlign=bottom;endArrow=block;edgeStyle=elbowEdgeStyle;elbow=horizontal;curved=0;rounded=0;dashed=1;" edge="1" parent="1" target="K3tkkCh4TKfrHV-Ib_or-2">
          <mxGeometry relative="1" as="geometry">
            <mxPoint x="425" y="120" as="sourcePoint" />
            <Array as="points">
              <mxPoint x="530" y="120" />
            </Array>
            <mxPoint x="590" y="120" as="targetPoint" />
          </mxGeometry>
        </mxCell>
        <mxCell id="K3tkkCh4TKfrHV-Ib_or-4" value="Forma a lista" style="html=1;verticalAlign=bottom;endArrow=block;edgeStyle=elbowEdgeStyle;elbow=vertical;curved=0;rounded=0;dashed=1;" edge="1" parent="1">
          <mxGeometry relative="1" as="geometry">
            <mxPoint x="585" y="160" as="sourcePoint" />
            <Array as="points">
              <mxPoint x="520" y="160" />
            </Array>
            <mxPoint x="425" y="160" as="targetPoint" />
          </mxGeometry>
        </mxCell>
        <mxCell id="K3tkkCh4TKfrHV-Ib_or-5" value="Tag" style="shape=umlLifeline;perimeter=lifelinePerimeter;whiteSpace=wrap;html=1;container=0;dropTarget=0;collapsible=0;recursiveResize=0;outlineConnect=0;portConstraint=eastwest;newEdgeStyle={&quot;edgeStyle&quot;:&quot;elbowEdgeStyle&quot;,&quot;elbow&quot;:&quot;vertical&quot;,&quot;curved&quot;:0,&quot;rounded&quot;:0};" vertex="1" parent="1">
          <mxGeometry x="710" y="30" width="100" height="570" as="geometry" />
        </mxCell>
        <mxCell id="K3tkkCh4TKfrHV-Ib_or-6" value="" style="html=1;points=[];perimeter=orthogonalPerimeter;outlineConnect=0;targetShapes=umlLifeline;portConstraint=eastwest;newEdgeStyle={&quot;edgeStyle&quot;:&quot;elbowEdgeStyle&quot;,&quot;elbow&quot;:&quot;vertical&quot;,&quot;curved&quot;:0,&quot;rounded&quot;:0};" vertex="1" parent="K3tkkCh4TKfrHV-Ib_or-5">
          <mxGeometry x="45" y="80" width="10" height="80" as="geometry" />
        </mxCell>
        <mxCell id="K3tkkCh4TKfrHV-Ib_or-7" value="Busca tags associadas" style="html=1;verticalAlign=bottom;endArrow=block;edgeStyle=elbowEdgeStyle;elbow=horizontal;curved=0;rounded=0;dashed=1;" edge="1" parent="1" source="K3tkkCh4TKfrHV-Ib_or-2" target="K3tkkCh4TKfrHV-Ib_or-6">
          <mxGeometry relative="1" as="geometry">
            <mxPoint x="600" y="130" as="sourcePoint" />
            <Array as="points">
              <mxPoint x="705" y="130" />
            </Array>
            <mxPoint x="760" y="130" as="targetPoint" />
          </mxGeometry>
        </mxCell>
        <mxCell id="K3tkkCh4TKfrHV-Ib_or-8" value="Compõe com posts" style="html=1;verticalAlign=bottom;endArrow=block;edgeStyle=elbowEdgeStyle;elbow=vertical;curved=0;rounded=0;dashed=1;" edge="1" parent="1" source="K3tkkCh4TKfrHV-Ib_or-6" target="K3tkkCh4TKfrHV-Ib_or-2">
          <mxGeometry relative="1" as="geometry">
            <mxPoint x="595" y="170" as="sourcePoint" />
            <Array as="points">
              <mxPoint x="670" y="150" />
            </Array>
            <mxPoint x="435" y="170" as="targetPoint" />
          </mxGeometry>
        </mxCell>
        <mxCell id="K3tkkCh4TKfrHV-Ib_or-9" value="Escolhe um post" style="html=1;verticalAlign=bottom;endArrow=block;edgeStyle=elbowEdgeStyle;elbow=horizontal;curved=0;rounded=0;" edge="1" parent="1" source="aM9ryv3xv72pqoxQDRHE-2" target="K3tkkCh4TKfrHV-Ib_or-2">
          <mxGeometry x="-0.4571" relative="1" as="geometry">
            <mxPoint x="250" y="230" as="sourcePoint" />
            <Array as="points">
              <mxPoint x="345" y="240" />
            </Array>
            <mxPoint x="430" y="230" as="targetPoint" />
            <mxPoint as="offset" />
          </mxGeometry>
        </mxCell>
        <mxCell id="K3tkkCh4TKfrHV-Ib_or-10" value="alternativa" style="shape=umlFrame;whiteSpace=wrap;html=1;pointerEvents=0;" vertex="1" parent="1">
          <mxGeometry x="80" y="260" width="550" height="200" as="geometry" />
        </mxCell>
        <mxCell id="K3tkkCh4TKfrHV-Ib_or-11" value="" style="edgeStyle=none;orthogonalLoop=1;jettySize=auto;html=1;rounded=0;exitX=0;exitY=0.504;exitDx=0;exitDy=0;exitPerimeter=0;entryX=1.004;entryY=0.501;entryDx=0;entryDy=0;entryPerimeter=0;endArrow=none;startFill=0;dashed=1;" edge="1" parent="1" source="K3tkkCh4TKfrHV-Ib_or-10" target="K3tkkCh4TKfrHV-Ib_or-10">
          <mxGeometry width="100" relative="1" as="geometry">
            <mxPoint x="50" y="520" as="sourcePoint" />
            <mxPoint x="150" y="520" as="targetPoint" />
            <Array as="points" />
          </mxGeometry>
        </mxCell>
        <mxCell id="K3tkkCh4TKfrHV-Ib_or-12" value="User possui pontos&amp;nbsp;&lt;div&gt;suficientes&lt;/div&gt;" style="text;html=1;align=center;verticalAlign=middle;resizable=0;points=[];autosize=1;strokeColor=none;fillColor=none;" vertex="1" parent="1">
          <mxGeometry x="90" y="390" width="130" height="40" as="geometry" />
        </mxCell>
        <mxCell id="K3tkkCh4TKfrHV-Ib_or-13" value="User não possui&amp;nbsp;&lt;div&gt;pontos&amp;nbsp;&lt;span style=&quot;background-color: transparent; color: light-dark(rgb(0, 0, 0), rgb(255, 255, 255));&quot;&gt;suficientes&lt;/span&gt;&lt;/div&gt;" style="text;html=1;align=center;verticalAlign=middle;resizable=0;points=[];autosize=1;strokeColor=none;fillColor=none;" vertex="1" parent="1">
          <mxGeometry x="95" y="295" width="120" height="40" as="geometry" />
        </mxCell>
        <mxCell id="K3tkkCh4TKfrHV-Ib_or-15" style="edgeStyle=elbowEdgeStyle;rounded=0;orthogonalLoop=1;jettySize=auto;html=1;elbow=vertical;curved=0;" edge="1" parent="1">
          <mxGeometry relative="1" as="geometry">
            <mxPoint x="585" y="320" as="sourcePoint" />
            <mxPoint x="235" y="320" as="targetPoint" />
            <Array as="points">
              <mxPoint x="410" y="320" />
            </Array>
          </mxGeometry>
        </mxCell>
        <mxCell id="K3tkkCh4TKfrHV-Ib_or-17" value="Retorna para a lista de posts, com mensagem de erro" style="edgeLabel;html=1;align=center;verticalAlign=middle;resizable=0;points=[];" vertex="1" connectable="0" parent="K3tkkCh4TKfrHV-Ib_or-15">
          <mxGeometry x="0.3422" relative="1" as="geometry">
            <mxPoint x="30" y="-10" as="offset" />
          </mxGeometry>
        </mxCell>
        <mxCell id="K3tkkCh4TKfrHV-Ib_or-18" style="edgeStyle=elbowEdgeStyle;rounded=0;orthogonalLoop=1;jettySize=auto;html=1;elbow=horizontal;curved=0;" edge="1" parent="1" source="K3tkkCh4TKfrHV-Ib_or-2" target="aM9ryv3xv72pqoxQDRHE-2">
          <mxGeometry relative="1" as="geometry">
            <Array as="points">
              <mxPoint x="410" y="420" />
            </Array>
          </mxGeometry>
        </mxCell>
        <mxCell id="K3tkkCh4TKfrHV-Ib_or-19" value="Apresenta o post e deduz pontos" style="edgeLabel;html=1;align=center;verticalAlign=middle;resizable=0;points=[];" vertex="1" connectable="0" parent="K3tkkCh4TKfrHV-Ib_or-18">
          <mxGeometry x="0.0409" relative="1" as="geometry">
            <mxPoint x="-73" y="-10" as="offset" />
          </mxGeometry>
        </mxCell>
      </root>
    </mxGraphModel>
  </diagram>
</mxfile>
